<?xml version="1.0" encoding="utf-8"?>
<!-- Generator: Adobe Illustrator 24.0.0, SVG Export Plug-In . SVG Version: 6.00 Build 0)  -->
<svg version="1.1" id="Calque_1" xmlns="http://www.w3.org/2000/svg" xmlns:xlink="http://www.w3.org/1999/xlink" x="0px" y="0px"
	 viewBox="0 0 100 100" style="enable-background:new 0 0 100 100;" xml:space="preserve">
<style type="text/css">
	.st0{fill:none;}
	.st1{fill:#31A4D8;}
</style>
<path class="st0" d="M38,38h24v24H38V38z"/>
<path class="st1" d="M90,0H10C4.5,0,0,4.5,0,10l0,90l20-20h70c5.5,0,10-4.5,10-10V10C100,4.5,95.5,0,90,0z M90,70H15.9l-3,2.9
	L10,75.8V10h80V70z M20,50h10v10H20V50z M20,35h10v10H20V35z M20,20h10v10H20V20z M40,50h25v10H40V50z M40,35h40v10H40V35z M40,20
	h40v10H40V20z"/>
</svg>
